General:
                                                                                                                                   
Name                             : Artificial.Intelligence.AI.2001.Blu-ray.720p.DTS.x264-SHiNNE.mkv
Format                           : Matroska                                                                                                
File size                        : 6.46 GiB                                                                                                
Duration                         : 2h 25mn                                                                                                 
Overall bit rate                 : 6 344 Kbps                                                                                              
Source file                      : Artificial.Intelligence.AI.2001.1080p.BluRay.x264-Japhson                                                                                                                                                                                                                                                       


                                                                                                                                           
Video:
                                                                                                                                     
ID                               : 1                                                                                                       
Format                           : AVC                                                                                                     
Format/Info                      : Advanced Video Codec                                                                                    
Format profile                   : Main@L3.1                                                                                               
Format settings, CABAC           : Yes                                                                                                     
Format settings, ReFrames        : 2 frames                                                                                                
Muxing mode                      : Container profile=Unknown@3.1                                                                           
Codec ID                         : V_MPEG4/ISO/AVC                                                                                         
Duration                         : 2h 25mn                                                                                                 
Bit rate                         : 4 708 Kbps                                                                                              
Width                            : 1 280 pixels                                                                                            
Height                           : 720 pixels                                                                                              
Display aspect ratio             : 16:9                                                                                                    
Frame rate mode                  : Variable                                                                                                
Frame rate                       : 23.976 fps                                                                                              
Resolution                       : 8 bits                                                                                                  
Colorimetry                      : 4:2:0                                                                                                   
Scan type                        : Progressive                                                                                             
Bits/(Pixel*Frame)               : 0.213                                                                                                   
Stream size                      : 4.80 GiB (74%)                                                                                          
Writing library                  : x264 core                                                                                               
Color primaries                  : BT.709-5, BT.1361, IEC 61966-2-4, SMPTE RP177                                                           
Transfer characteristics         : BT.709-5, BT.1361                                                                                       
Matrix coefficients              : BT.709-5, BT.1361, IEC 61966-2-4 709, SMPTE RP177                                                       


                                                                                                                                           
Audio:                                                                                                                                    

ID                               : 2                                                                                                       
Format                           : DTS                                                                                                     
Format/Info                      : Digital Theater Systems                                                                                 
Format profile                   : ES                                                                                                      
Codec ID                         : A_DTS                                                                                                   
Duration                         : 2h 25mn                                                                                                 
Bit rate mode                    : Constant                                                                                                
Bit rate                         : 1 510 Kbps                                                                                              
Channel(s)                       : 6 channels                                                                                              
Channel positions                : Front: L C R, Side: L R, LFE                                                                            
Sampling rate                    : 48.0 KHz                                                                                                
Resolution                       : 24 bits                                                                                                 
Stream size                      : 1.54 GiB (24%)